<svg width="375.00000000000006" height="812" xmlns="http://www.w3.org/2000/svg" xmlns:svg="http://www.w3.org/2000/svg">
 <!-- Generator: Sketch 53.2 (72643) - https://sketchapp.com -->
 <title>Quiz_Home - AOP</title>
 <desc>Created with Sketch.</desc>
 <defs>
  <path d="m24,0l72,0c13.25483,0 24,10.74517 24,24l0,132c0,13.25483 -10.74517,24 -24,24l-72,0c-13.25483,0 -24,-10.74517 -24,-24l0,-132c0,-13.25483 10.74517,-24 24,-24z" id="path-1"/>
  <path d="m24,0l72,0c13.25483,0 24,10.74517 24,24l0,132c0,13.25483 -10.74517,24 -24,24l-72,0c-13.25483,0 -24,-10.74517 -24,-24l0,-132c0,-13.25483 10.74517,-24 24,-24z" id="path-3"/>
  <path d="m24,0l72,0c13.25483,0 24,10.74517 24,24l0,72c0,13.25483 -10.74517,24 -24,24l-72,0c-13.25483,0 -24,-10.74517 -24,-24l0,-72c0,-13.25483 10.74517,-24 24,-24z" id="path-5"/>
  <path d="m24,0l72,0c13.25483,0 24,10.74517 24,24l0,72c0,13.25483 -10.74517,24 -24,24l-72,0c-13.25483,0 -24,-10.74517 -24,-24l0,-72c0,-13.25483 10.74517,-24 24,-24z" id="path-7"/>
  <path d="m8,0l187.73332,0c4.64698,0 9.14893,1.61818 12.73255,4.57657l13.1392,10.84686c3.58362,2.95839 8.08557,4.57657 12.73256,4.57657l103.66237,0c4.41828,0 8,3.58172 8,8l0,43c0,4.41828 -3.58172,8 -8,8l-330,0c-4.41828,0 -8,-3.58172 -8,-8l0,-63c0,-4.41828 3.58172,-8 8,-8z" id="path-9"/>
  <path d="m56.87585,25.34292l14.22637,8.20274c1.23873,0.71423 2.00199,2.03536 2.00199,3.46525l0,16.39631c0,1.42988 -0.76326,2.75102 -2.00199,3.46525l-14.22637,8.20274c-1.2366,0.713 -2.75944,0.713 -3.99603,0l-14.22637,-8.20274c-1.23873,-0.71423 -2.00199,-2.03537 -2.00199,-3.46525l0,-16.39631c0,-1.42989 0.76326,-2.75102 2.00199,-3.46525l14.22637,-8.20274c1.23659,-0.71301 2.75943,-0.71301 3.99603,0z" id="path-12"/>
  <path d="m20.22439,0.85388l14.22637,8.20274c1.23872,0.71423 2.00199,2.03536 2.00199,3.46525l0,16.39631c0,1.42988 -0.76327,2.75102 -2.00199,3.46525l-14.22637,8.20274c-1.2366,0.713 -2.75944,0.713 -3.99603,0l-14.22638,-8.20274c-1.23872,-0.71423 -2.00198,-2.03537 -2.00198,-3.46525l0,-16.39631c0,-1.42989 0.76326,-2.75102 2.00198,-3.46525l14.22638,-8.20274c1.23659,-0.71301 2.75943,-0.71301 3.99603,0z" id="path-15"/>
  <path d="m56.89106,24.94479l14.22637,8.20274c1.23872,0.71423 2.00198,2.03536 2.00198,3.46524l0,16.39632c0,1.42988 -0.76326,2.75102 -2.00198,3.46525l-14.22637,8.20274c-1.2366,0.713 -2.75944,0.713 -3.99604,0l-14.22637,-8.20274c-1.23872,-0.71423 -2.00198,-2.03537 -2.00198,-3.46525l0,-16.39632c0,-1.42988 0.76326,-2.75101 2.00198,-3.46524l14.22637,-8.20274c1.2366,-0.71301 2.75944,-0.71301 3.99604,0z" id="path-19"/>
 </defs>
 <g>
  <title>Layer 1</title>
  <path d="m9.74808,-51.91304l104.73158,0c4.99734,0 9.83873,4.28253 13.69254,12.11195l14.12984,28.70637c3.85381,7.82942 8.69519,12.11196 13.69253,12.11196l208.63413,0c4.7514,0 8.60317,9.47907 8.60317,21.17211l0,351.98635c0,11.69304 -3.85176,21.17211 -8.60317,21.17211l-354.88062,0c-4.7514,0 -8.60317,-9.47907 -8.60317,-21.17211l0,-404.91663c0,-11.69304 3.85176,-21.17211 8.60317,-21.17211z" id="bg" fill="#FFFFFF"/>
  <text id="View-all" font-family="Avenir-Book, Avenir" font-size="15" font-weight="normal" fill="#706E6E" y="314.85507" x="590.66669">
   <tspan x="739.40669" y="746.85507" id="svg_2">View all</tspan>
  </text>
  <g id="Nav-bar" fill="#FFFFFF">
   <g id="Bars-/-Status-/-Default-•-White">
    <g id="Action" font-family=".AppleSystemUIFont" font-size="15" font-weight="normal">
     <text id="↳-Time" y="26" x="28.8939">
      <tspan x="41.4363" y="41" id="svg_37">9:41</tspan>
     </text>
    </g>
    <g id="Container">
     <g id="Battery">
      <path d="m348.58944,29.16c-0.98698,0 -1.33154,0.06653 -1.68543,0.2558c-0.28202,0.15083 -0.49738,0.36618 -0.64821,0.64821c-0.18926,0.35389 -0.2558,0.69845 -0.2558,1.68543l0,4.32112c0,0.98698 0.06654,1.33153 0.2558,1.68542c0.15083,0.28203 0.36619,0.49739 0.64821,0.64822c0.35389,0.18926 0.69845,0.2558 1.68543,0.2558l14.82112,0c0.98698,0 1.33154,-0.06654 1.68543,-0.2558c0.28202,-0.15083 0.49738,-0.36619 0.64821,-0.64822c0.18926,-0.35389 0.2558,-0.69844 0.2558,-1.68542l0,-4.32112c0,-0.98698 -0.06654,-1.33154 -0.2558,-1.68543c-0.15083,-0.28203 -0.36619,-0.49738 -0.64821,-0.64821c-0.35389,-0.18927 -0.69845,-0.2558 -1.68543,-0.2558l-14.82112,0zm0,-1l14.82112,0c1.24813,0 1.70073,0.12995 2.15702,0.37398c0.4563,0.24403 0.8144,0.60214 1.05843,1.05843c0.24403,0.4563 0.37399,0.9089 0.37399,2.15703l0,4.32112c0,1.24812 -0.12996,1.70073 -0.37399,2.15702c-0.24403,0.4563 -0.60213,0.8144 -1.05843,1.05843c-0.45629,0.24403 -0.90889,0.37399 -2.15702,0.37399l-14.82112,0c-1.24813,0 -1.70073,-0.12996 -2.15702,-0.37399c-0.4563,-0.24403 -0.8144,-0.60213 -1.05843,-1.05843c-0.24403,-0.45629 -0.37399,-0.9089 -0.37399,-2.15702l0,-4.32112c0,-1.24813 0.12996,-1.70073 0.37399,-2.15703c0.24403,-0.45629 0.60213,-0.8144 1.05843,-1.05843c0.45629,-0.24403 0.90889,-0.37398 2.15702,-0.37398zm19.41056,3.69c1,0.50895 1.5,1.17562 1.5,2c0,0.82438 -0.5,1.49105 -1.5,2l0,-4z" id="Rectangle" fill-opacity="0.36" fill-rule="nonzero"/>
      <path d="m349.05111,30.07666l13.89778,0c0.71322,0 0.97185,0.07426 1.23259,0.21371c0.26074,0.13945 0.46537,0.34408 0.60481,0.60482c0.13945,0.26074 0.21371,0.51937 0.21371,1.23258l0,3.56445c0,0.71322 -0.07426,0.97185 -0.21371,1.23259c-0.13944,0.26074 -0.34407,0.46537 -0.60481,0.60481c-0.26074,0.13945 -0.51937,0.21371 -1.23259,0.21371l-13.89778,0c-0.71322,0 -0.97185,-0.07426 -1.23259,-0.21371c-0.26074,-0.13944 -0.46537,-0.34407 -0.60481,-0.60481c-0.13945,-0.26074 -0.21371,-0.51937 -0.21371,-1.23259l0,-3.56445c0,-0.71321 0.07426,-0.97184 0.21371,-1.23258c0.13944,-0.26074 0.34407,-0.46537 0.60481,-0.60482c0.26074,-0.13945 0.51937,-0.21371 1.23259,-0.21371z" id="Rectangle"/>
     </g>
     <path d="m303.88957,35.3l0.22086,0c0.3564,0 0.58012,0.0557 0.77568,0.16028c0.19555,0.10459 0.34903,0.25806 0.45361,0.45362c0.10458,0.19555 0.16028,0.41928 0.16028,0.77568l0,1.22085c0,0.3564 -0.0557,0.58013 -0.16028,0.77568c-0.10458,0.19556 -0.25806,0.34903 -0.45361,0.45362c-0.19556,0.10458 -0.41928,0.16028 -0.77568,0.16028l-0.22086,0c-0.3564,0 -0.58012,-0.0557 -0.77568,-0.16028c-0.19555,-0.10459 -0.34903,-0.25806 -0.45361,-0.45362c-0.10458,-0.19555 -0.16028,-0.41928 -0.16028,-0.77568l0,-1.22085c0,-0.3564 0.0557,-0.58013 0.16028,-0.77568c0.10458,-0.19556 0.25806,-0.34903 0.45361,-0.45362c0.19556,-0.10458 0.41928,-0.16028 0.77568,-0.16028zm4.79999,-2l0.22086,0c0.3564,0 0.58012,0.0557 0.77568,0.16028c0.19555,0.10459 0.34902,0.25806 0.45361,0.45362c0.10458,0.19555 0.16028,0.41928 0.16028,0.77568l0,3.22085c0,0.3564 -0.0557,0.58013 -0.16028,0.77568c-0.10459,0.19556 -0.25806,0.34903 -0.45361,0.45362c-0.19556,0.10458 -0.41928,0.16028 -0.77568,0.16028l-0.22086,0c-0.3564,0 -0.58012,-0.0557 -0.77568,-0.16028c-0.19556,-0.10459 -0.34903,-0.25806 -0.45361,-0.45362c-0.10459,-0.19555 -0.16028,-0.41928 -0.16028,-0.77568l0,-3.22085c0,-0.3564 0.05569,-0.58013 0.16028,-0.77568c0.10458,-0.19556 0.25805,-0.34903 0.45361,-0.45362c0.19556,-0.10458 0.41928,-0.16028 0.77568,-0.16028zm4.6,-2.3l0.22086,0c0.3564,0 0.58013,0.0557 0.77568,0.16028c0.19556,0.10459 0.34903,0.25806 0.45361,0.45361c0.10459,0.19556 0.16028,0.41928 0.16028,0.77568l0,5.52086c0,0.3564 -0.05569,0.58013 -0.16028,0.77568c-0.10458,0.19556 -0.25805,0.34903 -0.45361,0.45362c-0.19555,0.10458 -0.41928,0.16028 -0.77568,0.16028l-0.22086,0c-0.35639,0 -0.58012,-0.0557 -0.77567,-0.16028c-0.19556,-0.10459 -0.34903,-0.25806 -0.45362,-0.45362c-0.10458,-0.19555 -0.16028,-0.41928 -0.16028,-0.77568l0,-5.52086c0,-0.3564 0.0557,-0.58012 0.16028,-0.77568c0.10459,-0.19555 0.25806,-0.34902 0.45362,-0.45361c0.19555,-0.10458 0.41928,-0.16028 0.77567,-0.16028zm4.7,-2.4l0.22086,0c0.3564,0 0.58012,0.0557 0.77568,0.16028c0.19555,0.10458 0.34903,0.25806 0.45361,0.45361c0.10459,0.19556 0.16028,0.41928 0.16028,0.77568l0,7.92086c0,0.3564 -0.05569,0.58012 -0.16028,0.77568c-0.10458,0.19555 -0.25806,0.34903 -0.45361,0.45361c-0.19556,0.10458 -0.41928,0.16028 -0.77568,0.16028l-0.22086,0c-0.3564,0 -0.58012,-0.0557 -0.77568,-0.16028c-0.19555,-0.10458 -0.34903,-0.25806 -0.45361,-0.45361c-0.10458,-0.19556 -0.16028,-0.41928 -0.16028,-0.77568l0,-7.92086c0,-0.3564 0.0557,-0.58012 0.16028,-0.77568c0.10458,-0.19555 0.25806,-0.34903 0.45361,-0.45361c0.19556,-0.10458 0.41928,-0.16028 0.77568,-0.16028z" id="Combined-Shape"/>
     <path d="m332.30043,30.69636c2.23441,0.0001 4.38338,0.85865 6.00275,2.39821c0.12194,0.11886 0.31684,0.11736 0.43695,-0.00336l1.16566,-1.17642c0.06081,-0.06123 0.09471,-0.14417 0.09421,-0.23046c-0.0005,-0.0863 -0.03537,-0.16884 -0.0969,-0.22935c-4.25033,-4.07331 -10.9557,-4.07331 -15.20602,0c-0.06157,0.06047 -0.0965,0.14298 -0.09707,0.22928c-0.00057,0.08629 0.03328,0.16926 0.09404,0.23053l1.16601,1.17642c0.12001,0.1209 0.31508,0.1224 0.43695,0.00336c1.61957,-1.53966 3.76879,-2.39822 6.00342,-2.39821l0,0zm0,3.82739c1.22766,-0.00008 2.41152,0.45624 3.32153,1.28027c0.12308,0.11695 0.31696,0.11442 0.43695,-0.00571l1.16432,-1.17642c0.06131,-0.0617 0.09533,-0.14541 0.09445,-0.2324c-0.00089,-0.08699 -0.0366,-0.16999 -0.09916,-0.23043c-2.77117,-2.57775 -7.06267,-2.57775 -9.83383,0c-0.0626,0.06044 -0.09831,0.14349 -0.09913,0.2305c-0.00083,0.08701 0.03332,0.17072 0.09475,0.23233l1.16399,1.17642c0.11998,0.12013 0.31387,0.12266 0.43695,0.00571c0.90941,-0.82349 2.09232,-1.27977 3.31918,-1.28027l0,0zm2.23754,2.8076c0.06227,-0.06112 0.09656,-0.14521 0.09478,-0.23244c-0.00179,-0.08723 -0.03948,-0.16986 -0.10419,-0.22838c-1.28623,-1.0879 -3.17004,-1.0879 -4.45627,0c-0.06475,0.05847 -0.10252,0.14107 -0.10436,0.2283c-0.00185,0.08723 0.03239,0.17136 0.09461,0.23252l2.01437,2.03251c0.05904,0.05973 0.13952,0.09335 0.22352,0.09335c0.08399,0 0.16447,-0.03362 0.22351,-0.09335l2.01403,-2.03251z" id="Wi-Fi"/>
    </g>
   </g>
  </g>
  <g id="Bars-/-Home-Indicator-/-White" fill="#FFFFFF">
   <rect id="Line" x="1011.01166" y="923.18569" width="135" height="5" rx="2.5"/>
  </g>
 </g>
</svg>